<svg xmlns="http://www.w3.org/2000/svg" viewBox="0 0 300 300">
  <!-- White background circle -->
  <circle cx="150" cy="150" r="140" fill="#FFFFFF"/>

  <!-- Dark blue left side head -->
  <circle cx="100" cy="80" r="20" fill="#001D47"/>

  <!-- Dark blue curved left swoosh -->
  <path d="M 70 110 Q 65 140 75 170 Q 95 200 135 205 Q 115 170 110 140 Q 105 115 103 95 Z" fill="#002D5C"/>
  <path d="M 85 130 Q 75 160 85 195 Q 110 225 145 230 Q 115 200 105 160 Q 100 130 95 115 Z" fill="#0047A3"/>

  <!-- Teal right side head -->
  <circle cx="200" cy="90" r="22" fill="#14B8A6"/>

  <!-- Teal curved right swoosh -->
  <path d="M 225 115 Q 235 145 230 180 Q 215 215 165 220 Q 200 185 210 150 Q 220 120 223 105 Z" fill="#0EA5A5"/>
  <path d="M 210 135 Q 228 165 220 205 Q 200 240 160 235 Q 195 210 207 170 Q 215 145 215 125 Z" fill="#06B6A8"/>

  <!-- White accent highlights -->
  <ellipse cx="105" cy="170" rx="12" ry="16" fill="white" opacity="0.5"/>
  <ellipse cx="190" cy="180" rx="14" ry="18" fill="white" opacity="0.4"/>
</svg>
