<svg xmlns="http://www.w3.org/2000/svg" viewBox="0 0 120 120">
  <defs>
    <clipPath id="c">
      <circle cx="60" cy="60" r="58"/>
    </clipPath>
  </defs>
  <circle cx="60" cy="60" r="58" fill="#FFFFFF"/>
  <g clip-path="url(#c)" transform="translate(60 60) scale(1.5) translate(-60 -60)">
    <circle cx="40" cy="32" r="12" fill="#001D47"/>
    <path d="M 28 48 Q 22 70 35 95 Q 55 115 75 110 Q 58 95 50 70 Q 45 55 42 48 Z" fill="#0047A3"/>
    <path d="M 42 58 Q 35 80 48 105 Q 70 125 90 115 Q 70 100 60 75 Q 55 62 52 55 Z" fill="#003D82"/>
    <circle cx="80" cy="38" r="13" fill="#14B8A6"/>
    <path d="M 92 55 Q 100 78 92 105 Q 70 130 45 122 Q 70 105 78 80 Q 85 60 88 52 Z" fill="#0EA5A5"/>
    <path d="M 85 65 Q 95 88 85 115 Q 60 140 35 130 Q 65 110 75 85 Q 82 68 84 60 Z" fill="#06B6A8"/>
  </g>
</svg>
